<?xml version="1.0" encoding="UTF-8"?>
<svg width="352px" height="248px" viewBox="0 0 352 248" version="1.1" xmlns="http://www.w3.org/2000/svg" xmlns:xlink="http://www.w3.org/1999/xlink">
    <title>tagline_white 3</title>
    <g id="Sign-up" stroke="none" stroke-width="1" fill="none" fill-rule="evenodd">
        <g id="Login/Signup-Copy-2" transform="translate(-930.000000, -278.000000)">
            <g id="tagline_white" transform="translate(932.000000, 280.000000)">
                <polyline id="Fill-1" fill="#A9262B" points="201.613179 87.0707455 221.788179 87.0707455 221.788179 77.7587455 201.613179 77.7587455 201.613179 65.1287455 223.008179 65.1287455 223.008179 55.7387455 190.245179 55.7387455 190.245179 110.755746 224.150179 110.755746 224.150179 101.365746 201.613179 101.365746 201.613179 87.0707455"></polyline>
                <path d="M102.791179,55.7387455 L89.8141786,55.7387455 L85.3101786,65.6677455 C84.8551786,66.7217455 84.4221786,67.7447455 84.0301786,68.7097455 C83.6211786,69.6807455 83.2171786,70.6597455 82.8271786,71.6657455 C82.4201786,72.6817455 82.0141786,73.7697455 81.5811786,74.9457455 L81.1701786,76.0627455 L80.6611786,74.9847455 C80.6611786,74.9847455 79.2081786,71.9017455 78.5431786,70.4177455 C77.8801786,68.9377455 77.1481786,67.3457455 76.3511786,65.6747455 L71.6821786,55.7387455 L58.6111786,55.7387455 L73.6321786,82.9147455 L58.0471786,110.755746 L71.0261786,110.755746 L77.0391786,97.2777455 C77.5381786,96.1627455 78.0121786,95.0827455 78.4581786,94.0357455 C78.8901786,92.9967455 79.8441786,90.8547455 79.8441786,90.8547455 L80.2831786,89.8707455 L80.7501786,90.8407455 C81.2541786,91.8877455 81.7461786,92.9317455 82.2251786,93.9517455 C82.7451786,95.0687455 83.2571786,96.1487455 83.7991786,97.2707455 C84.3521786,98.3817455 84.9611786,99.6007455 85.6251786,100.888746 L90.4561786,110.755746 L103.604179,110.755746 L87.6191786,82.5817455 L102.791179,55.7387455" id="Fill-2" fill="#A9262B"></path>
                <polyline id="Fill-3" fill="#A9262B" points="161.288179 87.0707455 181.463179 87.0707455 181.463179 77.7587455 161.288179 77.7587455 161.288179 65.1287455 182.683179 65.1287455 182.683179 55.7387455 149.920179 55.7387455 149.920179 110.755746 183.823179 110.755746 183.823179 101.365746 161.288179 101.365746 161.288179 87.0707455"></polyline>
                <path d="M137.255179,82.6047455 C135.220179,81.0507455 132.582179,79.6627455 129.410179,78.4787455 C126.918179,77.5327455 124.999179,76.7157455 123.543179,75.9747455 C122.003179,75.2107455 120.836179,74.3627455 120.078179,73.4537455 C119.293179,72.5157455 118.903179,71.3887455 118.918179,70.1077455 C118.918179,69.0507455 119.241179,68.0577455 119.879179,67.1657455 C120.503179,66.2917455 121.466179,65.5717455 122.747179,65.0277455 C123.970179,64.4957455 125.490179,64.2287455 127.383179,64.2147455 C129.156179,64.2287455 130.816179,64.3797455 132.322179,64.6637455 C133.818179,64.9647455 135.096179,65.3127455 136.237179,65.7257455 C137.125179,66.0637455 137.857179,66.3697455 138.459179,66.6547455 L140.955179,57.5027455 C139.412179,56.7777455 137.599179,56.1767455 135.562179,55.7147455 C133.299179,55.1927455 130.604179,54.9207455 127.549179,54.9077455 C124.408179,54.9207455 121.544179,55.3397455 119.041179,56.1557455 C116.558179,56.9787455 114.419179,58.1367455 112.686179,59.5967455 C110.964179,61.0407455 109.622179,62.7717455 108.697179,64.7477455 C107.787179,66.6997455 107.319179,68.8697455 107.305179,71.1977455 C107.318179,73.7857455 107.933179,76.1177455 109.133179,78.1287455 C110.337179,80.1457455 112.057179,81.9277455 114.246179,83.4297455 C116.429179,84.9247455 119.075179,86.2457455 122.109179,87.3487455 C124.300179,88.1117455 126.116179,88.8927455 127.498179,89.6697455 C128.925179,90.4687455 129.976179,91.3477455 130.620179,92.2867455 C131.303179,93.2537455 131.644179,94.3817455 131.631179,95.6357455 C131.631179,96.9677455 131.265179,98.1437455 130.543179,99.1267455 C129.821179,100.101746 128.761179,100.866746 127.393179,101.400746 C126.025179,101.928746 124.354179,102.195746 122.427179,102.195746 C120.580179,102.179746 118.851179,102.008746 117.138179,101.672746 C115.507179,101.353746 113.895179,100.910746 112.345179,100.352746 C111.076179,99.8927455 109.978179,99.4287455 109.011179,98.9457455 L106.731179,108.341746 C107.709179,108.854746 108.904179,109.337746 110.322179,109.794746 C111.971179,110.329746 113.762179,110.761746 115.647179,111.081746 C117.559179,111.401746 119.595179,111.571746 121.698179,111.586746 C125.364179,111.571746 128.605179,111.108746 131.326179,110.213746 C134.020179,109.339746 136.274179,108.105746 138.026179,106.544746 C139.788179,105.000746 141.108179,103.202746 141.952179,101.199746 C142.820179,99.1697455 143.241179,97.0497455 143.241179,94.7137455 C143.241179,92.1677455 142.748179,89.8787455 141.775179,87.9147455 C140.798179,85.9347455 139.277179,84.1507455 137.255179,82.6047455" id="Fill-4" fill="#A9262B"></path>
                <path d="M263.673179,93.6187455 C262.078179,96.6197455 259.819179,98.8717455 256.959179,100.311746 C254.153179,101.727746 250.828179,102.443746 247.076179,102.443746 C246.982179,102.443746 246.893179,102.443746 246.793179,102.443746 C246.049179,102.443746 245.304179,102.443746 244.529179,102.418746 C243.697179,102.390746 243.010179,102.314746 242.429179,102.183746 L242.040179,102.095746 L242.040179,64.6597455 L242.412179,64.5617455 C242.946179,64.4227455 243.667179,64.3087455 244.683179,64.1997455 C245.700179,64.0977455 246.866179,64.0467455 248.153179,64.0467455 C251.811179,64.0467455 255.012179,64.7477455 257.670179,66.1277455 C260.351179,67.5177455 262.439179,69.6027455 263.875179,72.3187455 C265.313179,75.0037455 266.050179,78.3717455 266.063179,82.3297455 C266.050179,86.8327455 265.246179,90.6307455 263.673179,93.6187455 Z M273.908179,66.2817455 C272.558179,64.3087455 270.937179,62.5997455 269.087179,61.2047455 C267.396179,59.9037455 265.478179,58.8077455 263.381179,57.9457455 C261.256179,57.0767455 258.814179,56.4177455 256.126179,55.9817455 C251.857179,55.2927455 246.465179,55.1927455 240.811179,55.4747455 C238.613179,55.5997455 236.830179,55.7407455 235.201179,55.9167455 C233.651179,56.0717455 232.132179,56.2667455 230.673179,56.4957455 L230.673179,110.570746 C232.027179,110.753746 233.766179,110.919746 235.971179,111.075746 C238.285179,111.239746 240.993179,111.325746 244.249179,111.336746 C247.786179,111.336746 251.148179,111.073746 254.238179,110.554746 C257.333179,110.034746 260.171179,109.243746 262.672179,108.203746 C265.227179,107.130746 267.461179,105.793746 269.307179,104.225746 C271.024179,102.731746 272.555179,100.908746 273.855179,98.8147455 C275.190179,96.6747455 276.247179,94.1837455 277.000179,91.4107455 C277.757179,88.6297455 278.148179,85.4357455 278.164179,81.9147455 C278.148179,78.6837455 277.770179,75.7327455 277.041179,73.1477455 C276.314179,70.5697455 275.260179,68.2607455 273.908179,66.2817455 L273.908179,66.2817455 Z" id="Fill-5" fill="#A9262B"></path>
                <path d="M99.8817551,-0.274625953 C129.492223,-2.40811876 162.451552,-1.6447214 193.501749,0.681810888 L195.568876,0.83921416 L197.428108,0.976064597 C205.486277,1.53786491 213.563737,1.69384006 221.652841,1.44446143 L231.059135,1.16284394 L241.10014,0.884927933 L247.820389,0.714717935 L256.903856,0.509902319 L262.853021,0.39559966 L266.874149,0.329641483 L271.428665,0.26867418 L274.983781,0.233707057 L278.307142,0.21376342 L280.184732,0.209252037 L283.083357,0.214792661 L285.48266,0.234643615 L287.216547,0.260937422 L288.783813,0.296687793 L289.848983,0.329817791 L290.506217,0.35495604 L291.692905,0.412660458 L292.470346,0.462529305 L292.934669,0.498956936 L293.355589,0.537956948 L293.732912,0.579552477 L294.918848,0.725478844 L296.070013,0.872994304 L297.187161,1.02248738 L298.271047,1.17434661 L299.322425,1.3289605 L300.342049,1.4867176 C300.509382,1.51329396 300.675423,1.54001749 300.840189,1.56689626 L301.813596,1.73009663 L302.757135,1.89741152 C302.911945,1.92566179 303.065541,1.95409969 303.21794,1.98273331 L304.118091,2.15694845 C304.265764,2.18639733 304.41227,2.21605813 304.557627,2.24593892 L305.416087,2.4279285 L306.247697,2.61558668 C306.384103,2.64735702 306.519421,2.67937973 306.653668,2.71166292 L307.446416,2.90855252 C307.576439,2.94190999 307.705422,2.97554412 307.833381,3.00946301 L308.588964,3.2164582 C310.447814,3.74281268 312.083223,4.33688014 313.548227,5.0259788 L314.125266,5.30675135 C316.492775,6.49829464 318.406581,7.96393136 320.112222,9.83013475 L320.517704,10.2857792 L320.717684,10.519491 L320.906,10.746 L320.918806,10.7506902 L320.924,10.758 L321.242629,10.8811839 C325.985267,12.7533535 329.603091,15.2069059 332.008932,18.2963156 L332.271256,18.6422029 L332.523578,18.9933401 C340.855167,30.9118694 347.081172,46.3632597 348.923885,61.1360482 C351.090072,78.5020837 347.254854,93.9863347 336.622016,105.696032 L336.229976,106.122748 L336.041,106.318 L335.903533,106.875057 C331.671609,123.641244 323.371706,137.118086 310.934485,146.034482 L310.3831,146.424889 L309.834336,146.803905 L308.954,147.385 L308.346314,147.966277 C305.833549,150.331515 303.123179,152.451153 300.240501,154.299649 L299.516256,154.75611 L298.78492,155.201184 C289.129718,160.973889 281.151745,164.978833 272.465485,167.972867 C261.483489,171.75821 250.607726,173.342825 239.576782,172.324869 L238.769359,172.245734 C227.101809,171.035024 217.489288,172.348303 209.750594,175.839786 L209.259177,176.065602 L209.117,176.133 L208.607606,176.524217 C199.318186,183.768156 193.375814,193.291683 188.51787,208.192922 L188.091985,209.521772 L187.671382,210.879007 C187.183627,212.47919 186.705953,214.138291 186.235892,215.859689 L185.846998,217.304483 L183.961706,224.408896 L182.840497,216.661574 L182.766,216.204 L182.751758,216.182586 C182.713144,216.117911 182.678576,216.050359 182.648365,215.980251 L182.606355,215.873214 L182.556099,215.706004 L176.51,190.981 L176.442638,190.778571 C174.603308,185.383495 172.542402,180.499317 170.258026,176.281373 L169.852581,175.543978 L169.464194,174.858323 L169.356,174.673 L169.13658,174.375308 C167.010008,171.559127 164.907618,169.978344 162.891286,169.675587 L162.667606,169.647209 L162.444654,169.629362 C137.121353,168.200128 116.945121,168.959093 93.6127117,171.386669 L81.8733572,172.673376 L74.1721818,173.488076 L72.2442508,173.676367 L71.8943233,173.707704 C71.230902,173.765328 70.5870352,173.817797 69.9614494,173.865026 L68.7342751,173.952475 L67.5535859,174.025802 C67.3605523,174.036838 67.1693612,174.047279 66.9799656,174.057123 L65.8647585,174.108986 C65.4999527,174.123866 65.141951,174.136329 64.790376,174.146352 L63.7545539,174.169072 C61.211312,174.207437 59.0083462,174.107081 56.9864541,173.857451 C54.8471751,173.593438 52.2816173,172.736854 49.4387346,171.348814 L48.998,171.13 L48.4124298,171.06567 C37.2927604,169.731312 29.4453616,166.153208 25.2551975,159.860122 L25.0380416,159.526397 L24.827652,159.187644 C15.8689946,144.417437 6.08358493,121.149979 1.50230678,100.710537 C-4.70312766,73.0248963 -1.67305769,51.7008895 13.2773155,40.3771907 L13.7340086,40.0371131 L14.274,39.659 L14.2758831,39.6551568 L14.28,39.651 L14.5736363,38.7651754 C15.5211007,35.9722697 16.578355,33.3097801 17.7456372,30.7871442 L18.1885261,29.8477298 L18.6417329,28.9215374 C27.0846226,11.9849224 55.997322,2.88733428 99.8817551,-0.274625953 Z M216.531227,16.2270249 L213.583,16.411 L190.554999,20.2860141 L180.970067,21.876177 L175.32439,22.7900917 L172.917302,23.1690068 L170.608574,23.5200212 L168.85856,23.768034 L168.088863,23.8635493 L167.375663,23.9303623 L166.882814,23.9660136 L166.201518,24.002628 L165.848109,24.0161678 L165.110422,24.033519 L164.324448,24.0376408 L163.481635,24.0282232 L162.807078,24.0120884 L161.844214,23.9782313 L160.246566,23.900365 L158.439237,23.7890721 L156.393359,23.6433069 L153.666489,23.4282833 L149.551907,23.0781156 L145.161,22.686 L140.144398,23.2525528 L134.12596,23.9435628 L126.322585,24.856934 L102.76343,27.7025033 L75.0909862,31.0737054 L67.6961853,31.9492882 L63.1732887,32.4723051 L56.9490322,33.1702737 L52.5343055,33.6447511 L50.1654236,33.8902372 L46.2675176,34.2768863 L44.1713898,34.4742018 L42.1632523,34.655001 L39.30297,34.8963985 L38.3870708,34.969184 C37.3315254,35.0516916 36.2996827,35.1562328 35.3009348,35.2812489 L34.572,35.376 L34.3540422,35.5167876 C24.6377173,41.9101223 17.4673504,50.4132753 13.060575,61.2656193 L12.8045421,61.9067038 L12.464,62.798 L12.3332766,63.9962425 C8.06638981,104.950675 21.5830558,153.768211 36.3780599,155.053379 C41.9104457,155.534221 48.0720785,155.538847 54.8475774,155.123756 C59.6954707,154.826756 64.669712,154.335095 70.0446397,153.646181 L72.0795555,153.378586 L74.1552506,153.092469 C74.5047766,153.043238 74.8561358,152.993233 75.209395,152.942455 L77.3522868,152.628497 C77.7134142,152.574621 78.0765756,152.519971 78.441838,152.464545 L81.7149978,151.955188 L95.230991,149.739298 L97.4641793,149.390527 C97.8306382,149.334286 98.1943017,149.278985 98.555281,149.224619 L100.689837,148.909598 C102.793963,148.60571 104.809468,148.335092 106.760381,148.096595 L108.690653,147.868763 C117.924838,146.818908 125.837184,146.51046 135.140767,146.813511 L137.086387,146.884894 L139.07705,146.973472 L141.118094,147.078989 L143.214859,147.20119 C143.923661,147.244675 144.64264,147.290899 145.372685,147.339818 L147.596912,147.494619 C162.236502,148.548787 174.073757,160.453708 175.943902,175.836554 L175.984,176.194 L178.137,184.999 L178.308982,185.424861 C180.451116,190.793571 182.353779,196.865892 184.000989,203.17619 C184.133775,203.684882 184.262846,204.187409 184.388172,204.683072 C185.115467,201.497406 186.122494,198.30651 187.452458,195.193025 L187.774,194.455 L187.900734,194.022587 C193.589823,174.487981 199.995249,160.416818 208.980488,147.774822 L209.171099,147.509524 L209.55676,146.990382 C212.666979,142.897613 216.39564,140.242163 222.188974,138.198257 L222.923999,137.945894 C223.04833,137.904345 223.173584,137.863046 223.299773,137.82199 L224.068235,137.57851 C224.3282,137.498283 224.592012,137.418967 224.859774,137.340505 L225.675016,137.107615 C225.8129,137.069207 225.951798,137.030997 226.091723,136.992977 L226.943698,136.767089 C227.231867,136.692517 227.524249,136.618647 227.820947,136.545422 L228.724097,136.327615 L229.653775,136.113311 L230.61061,135.902152 L231.595229,135.69378 L232.608259,135.487835 L233.65033,135.283959 L234.722067,135.081794 L235.824099,134.880982 L237.535323,134.581515 L248.742423,132.784177 L253.18443,132.058058 L258.145834,131.234089 L262.724277,130.452402 L264.604841,130.119061 L265.257346,130.000066 C278.003883,127.651397 290.513326,124.792097 304.188889,120.934099 C311.394019,118.901348 317.653744,116.237192 322.9777,112.993306 L323.657,112.572 L323.784163,111.784712 C324.08546,109.81582 324.293083,107.828322 324.405546,105.829512 L324.741419,99.7200166 L325.044635,93.9073152 L325.315043,88.3817924 L325.507648,84.1616811 L325.679083,80.1142868 L325.829272,76.2346864 L325.958137,72.5179568 L326.065602,68.9591747 L326.132111,66.3907795 L326.186507,63.9063836 L326.216025,62.2957602 L326.25016,59.9467475 L326.272095,57.6761954 L326.281798,55.482027 L326.281798,53.3621652 L326.264379,51.3145332 L326.237191,49.3370539 L326.2122,48.0566825 L326.164391,46.1915089 L326.104167,44.3909496 L326.057103,43.2254477 L325.976114,41.5279631 L325.915177,40.4292547 L325.813332,38.8290754 L325.738462,37.7933141 L325.658001,36.7816548 L325.571941,35.7934819 L325.480272,34.8281801 L325.332229,33.4217646 L325.226493,32.5109483 L325.115115,31.6208492 L324.998084,30.7508518 L324.875391,29.900341 L324.747027,29.0687011 L324.67,28.599 L324.445222,28.3758703 C312.659275,17.0008643 279.620959,13.2213046 228.404003,15.5886152 L225.074492,15.749859 C224.51538,15.7781495 223.954174,15.8071472 223.390877,15.8368502 L219.986044,16.0235171 C218.842759,16.0885511 217.691143,16.1563918 216.531227,16.2270249 Z M322.866,116.537 L322.508309,116.740419 C317.632151,119.47034 312.097766,121.752683 305.89422,123.565605 L305.003446,123.821398 C291.80826,127.543878 279.687239,130.34383 267.404138,132.652078 L265.153571,133.068483 L264.075412,133.261025 L260.680857,133.848196 L256.249274,134.592244 L238.543,137.453 L237.466526,137.63755 L236.332733,137.837478 L235.232564,138.037968 L234.165303,138.239396 L233.13023,138.442134 L232.126628,138.646556 L231.15378,138.853036 L230.210966,139.061946 L229.29747,139.27366 L228.412574,139.488552 L227.555559,139.706995 L226.725709,139.929363 C226.589624,139.966772 226.454641,140.004361 226.320745,140.042136 L225.530294,140.271091 C224.623039,140.540966 223.767579,140.820761 222.958784,141.113143 L222.27684,141.366901 L221.617035,141.627198 C221.076222,141.84694 220.557723,142.073883 220.059667,142.308998 L219.471693,142.595122 C218.218493,143.223826 217.098438,143.910408 216.078669,144.671961 L215.615007,145.028832 C214.549188,145.874245 213.593814,146.809656 212.707848,147.856416 L212.332277,148.311906 C212.022644,148.697266 211.721116,149.097218 211.425823,149.512734 C204.465884,159.305184 199.083079,169.992621 194.359341,183.590607 L194.244,183.924 L194.512126,183.605068 C197.800196,179.732667 201.796445,176.504405 206.565348,174.047086 L207.098409,173.77723 L207.538,173.564 L207.563707,173.545696 C213.840189,168.833909 221.620033,165.08181 231.450867,162.137828 L232.717051,161.766379 C233.781559,161.460477 234.869543,161.163647 235.981661,160.875708 L237.327831,160.534437 C239.817201,159.916553 242.42466,159.341345 245.157229,158.806869 L246.660171,158.519364 C247.165315,158.424868 247.674638,158.331707 248.188181,158.239869 L249.741512,157.968312 C251.568602,157.6561 253.447906,157.359954 255.381234,157.079373 L257.051646,156.842675 L258.748771,156.61353 L260.472863,156.391869 L262.224176,156.177621 L264.002962,155.970717 C264.30173,155.936841 264.601653,155.903268 264.902737,155.869997 L266.723208,155.673976 L268.571786,155.485123 L270.448724,155.303369 L272.354274,155.128642 C272.674264,155.100103 272.995457,155.071854 273.317858,155.043893 L274.298534,154.960044 L276.284296,154.797464 C288.013657,153.864921 298.018374,150.705902 306.314605,145.520153 L306.87761,145.163441 L307.06,145.04 L307.275931,144.829941 C314.715156,137.462744 320.048132,127.910245 322.667976,117.362052 L322.866,116.537 Z M82.4762941,154.87141 L81.1230925,155.086588 C80.3686806,155.204674 79.623201,155.319635 78.8861083,155.431477 L76.6994448,155.75765 L74.5598283,156.065133 L72.4639851,156.353954 C66.2388416,157.192452 60.5604414,157.77939 55.0310242,158.118142 C48.4814102,158.519394 42.477194,158.536264 37.0224121,158.116186 L36.1183699,158.042118 L35.686,157.991 L35.7066209,158.010406 C40.1187684,162.061921 44.6756698,165.394892 49.0723999,167.783526 L49.5789868,168.054934 L49.882,168.21 L49.9952802,168.22321 C54.145572,168.648484 58.7165206,168.771368 63.768977,168.611543 L65.2256908,168.558203 L66.7089246,168.489579 C66.9583577,168.476874 67.208909,168.463536 67.4605849,168.449568 L68.9841899,168.35821 L70.5351032,168.251824 C70.795882,168.232846 71.0578117,168.213246 71.320899,168.193027 L72.9133663,168.064289 C73.1811102,168.041598 73.4500247,168.018293 73.7201165,167.994373 L75.3548474,167.843513 L77.0181482,167.678033 L78.7103343,167.498034 L80.4317212,167.303618 C80.7210699,167.27002 81.0116485,167.235825 81.3034635,167.201036 L83.0692429,166.985187 L84.8650115,166.755176 L86.6910847,166.511106 L88.5477779,166.253078 L91.1077547,165.882178 L93.1942251,165.568189 L96.0337899,165.125305 L98.2266201,164.772045 L100.490687,164.398197 L102.841384,164.001504 L106.137008,163.433149 L128.134389,159.548803 L131.720505,158.928991 L135.34006,158.319961 L138.249564,157.854889 L139.998466,157.595275 L141.498012,157.392925 L142.491001,157.27396 L143.539901,157.165753 L144.637725,157.0759 L145.325741,157.032794 L145.669563,157.014943 L146.077425,156.996686 L146.904404,156.96786 L148.222342,156.93646 L149.190989,156.91768 L150.001179,156.909746 C158.36213,156.909746 165.423539,162.380894 171.317289,172.096582 L171.597062,172.562437 L171.862,173.016 L171.884934,173.046642 C172.082104,173.318945 172.278289,173.599228 172.473498,173.887373 L172.648,174.149 L172.640388,174.106205 C170.203977,161.28331 160.107508,151.595528 147.779801,150.518612 L147.381366,150.486866 L145.182328,150.333774 L143.049718,150.196642 L140.978196,150.075727 C139.616357,150.000579 138.291681,149.936412 136.997049,149.883567 L135.076743,149.812832 C123.046234,149.419157 113.405763,150.062579 100.049785,152.034843 L97.9091794,152.357338 C97.5469689,152.412942 97.1819629,152.469477 96.8140499,152.526948 L82.4762941,154.87141 Z M294.320906,154.349558 L293.879223,154.491372 C288.778275,156.111464 283.263659,157.194603 277.336401,157.719612 L274.546917,157.949742 L272.594568,158.119098 L270.672523,158.295532 L268.780514,158.479112 L266.918271,158.669903 L265.085527,158.867971 L263.282012,159.073383 C262.983847,159.108234 262.686888,159.143394 262.391131,159.178864 L260.630957,159.395415 C259.758031,159.505562 258.895815,159.618525 258.044156,159.734341 L256.354872,159.969789 L254.693475,160.21291 L253.059694,160.463773 L251.453262,160.722441 C250.922313,160.809973 250.395878,160.898816 249.873911,160.988983 L248.32137,161.263464 C247.808295,161.356288 247.299645,161.450446 246.795373,161.545949 L245.295649,161.836506 C245.04787,161.885609 244.801174,161.93505 244.555556,161.984832 L243.09474,162.28762 L241.659526,162.598645 L240.249645,162.917972 C239.31811,163.13364 238.403285,163.354886 237.504811,163.581801 L236.16932,163.926434 C235.066555,164.217188 233.989061,164.516868 232.936136,164.825644 L231.684376,165.200553 C229.410939,165.895931 227.255067,166.635671 225.209309,167.421608 L224.104317,167.854894 C222.645435,168.438746 221.24408,169.047209 219.897384,169.680988 C225.387371,168.729455 231.479512,168.543032 238.19895,169.174715 L239.078958,169.261752 C249.923344,170.386747 260.629657,168.879301 271.487872,165.136624 C278.779225,162.623395 285.589712,159.362479 293.413571,154.873049 L294.320906,154.349558 Z M150.016004,159.909672 L149.23471,159.917328 L147.585758,159.951482 L146.833829,159.972781 L145.825405,160.013995 L145.112978,160.05496 L144.070276,160.134996 L143.08194,160.231921 L142.151629,160.33899 L140.753417,160.521958 L139.128911,160.757777 L137.227981,161.053971 L133.748628,161.627927 L129.769264,162.309953 L121.822389,163.703943 L107.379758,166.26148 L103.867254,166.869753 L101.370317,167.292739 L98.9713209,167.690158 L96.6523861,168.064627 C117.744609,165.989582 136.561737,165.323542 159.357266,166.460908 L160.992369,166.54522 L162.613796,166.634134 C162.96985,166.654252 163.322832,166.698031 163.672836,166.765013 C159.637413,162.391671 155.206399,160.025726 150.375787,159.913834 L150.016004,159.909672 Z M21.1385601,146.176993 L21.2385545,146.377653 C23.2865777,150.487005 25.3625995,154.284797 27.3926922,157.631826 C30.0821768,162.065832 34.9483192,165.100304 41.8967636,166.849533 C34.6342202,161.779569 27.3283015,154.601161 21.1385601,146.176993 Z M8.583,75.481 L8.46678199,75.9963516 C4.07268915,95.7104325 6.91992036,114.556797 15.679175,131.686994 C16.1403525,132.588905 16.6174474,133.483057 17.1093493,134.368631 L17.383,134.857 L17.1028311,134.086254 C11.5303681,118.54097 8.14137278,97.4075598 8.55333323,76.7559622 L8.583,75.481 Z M331.833678,110.314189 L331.790763,110.350324 C330.345745,111.572217 328.810222,112.739035 327.181491,113.850711 L326.477749,114.323767 L326.383,114.383 L326.353891,114.546969 C324.982218,121.76723 322.415583,128.6152 318.81608,134.767484 C324.59943,128.040661 328.936944,119.801137 331.833678,110.314189 Z M328.691362,35.2639862 L328.479,34.678 L328.58929,35.857329 L328.663192,36.7258408 L328.766166,38.0610114 L328.859707,39.4362605 L328.943839,40.8529325 L329.018586,42.3123715 L329.063216,43.3097543 L329.122377,44.8434592 L329.172219,46.4235162 L329.200282,47.5033024 L329.224221,48.6046852 L329.244044,49.728063 L329.266075,51.4552416 L329.28111,53.8388464 L329.281663,55.6888176 L329.273052,57.5936546 L329.247358,60.2211078 L329.205474,62.9516768 L329.147457,65.788548 L329.073366,68.734908 L328.983259,71.7939433 L328.877193,74.9688404 L328.722258,79.1052469 L328.542593,83.43389 L328.381131,87.0393971 L328.157235,91.7297498 L327.856345,97.6354755 L327.636317,101.745667 L327.40081,105.998009 C327.322248,107.394301 327.199362,108.785392 327.032362,110.170445 L327.016,110.293 L327.62043,109.844468 C329.408769,108.494192 331.065163,107.066258 332.5878,105.566868 L333.152515,105.001259 L333.31,104.834 L333.520288,103.945975 C338.319415,82.7707272 336.270094,57.1707147 328.989388,36.1150812 L328.691362,35.2639862 Z M323.90272,15.4312771 L324.106139,15.8565486 C325.483284,18.770637 326.54301,22.2574822 327.33575,26.4457753 L327.452665,27.0792962 L327.474,27.208 L328.01121,27.7993634 C329.238863,29.2569391 330.194689,30.8230422 330.872014,32.502832 L331.049829,32.963779 L331.515768,34.2527266 C338.699291,54.511824 341.11472,78.9785719 337.362497,100.067118 C345.093917,89.56889 347.794097,76.3156744 345.946955,61.5073815 C344.166851,47.2365173 338.125313,32.2429288 330.0648,20.7121805 C328.647842,18.6852935 326.586604,16.9244517 323.90272,15.4312771 Z M12.7772002,44.7003247 L12.6823091,44.7896971 C3.18421306,53.646725 -0.036491675,68.0956683 2.114745,86.6592523 L2.2716119,87.9460049 C2.35429273,88.592625 2.44333637,89.2440972 2.5387057,89.9003611 L2.73786761,91.2192597 C2.807059,91.6610102 2.8790508,92.1048723 2.95383202,92.5508282 L3.18653294,93.8949589 L3.43590435,95.2515442 C3.30378679,84.9354696 5.09549589,74.2977073 9.00726822,63.4747747 L9.28114116,62.7260962 L9.527,62.08 L9.68447411,60.7679258 C10.3934051,55.1212498 11.4235443,49.7432011 12.7772002,44.7003247 Z M27.2126085,37.0547743 L27.504,36.817 L27.4889677,36.8214514 C23.5905405,37.9091484 20.158515,39.4133345 17.1835539,41.3115561 L16.82,41.548 L16.6382127,42.1299897 C15.749947,45.0145497 14.9770276,48.0303051 14.3195987,51.1610355 L14.057,52.446 L14.2091672,52.1878808 C17.6423755,46.3833054 21.9930148,41.3519477 27.2126085,37.0547743 Z M195.337481,3.83027689 C163.822624,1.39221839 130.189417,0.549424216 100.097352,2.71761701 C57.2820507,5.80254418 29.0977353,14.6709411 21.3266392,30.2599237 C20.2337495,32.4524061 19.2306236,34.7681809 18.3192531,37.1949785 C22.1554076,35.1936257 26.552938,33.730689 31.5320722,32.8240695 L32.2332422,32.7007301 L33.492,32.506 L34.2783067,32.0062436 C48.2394502,23.3593306 66.4431115,18.8744774 88.5265565,17.6127809 L90.2719464,17.5199094 L91.7426438,17.4509091 L93.2054075,17.3905254 L94.6621651,17.3387363 L96.1148444,17.2955198 L97.5653728,17.2608538 L99.0156782,17.2347165 C99.2574843,17.2310697 99.4993614,17.2277774 99.7413497,17.2248391 L101.194935,17.2114533 C101.437528,17.2099291 101.680314,17.208758 101.92333,17.2079394 L103.384532,17.2072558 L104.853222,17.2150128 L106.331327,17.2311883 L107.820774,17.2557605 L109.323492,17.2887073 L111.606668,17.3537817 L113.150995,17.4075687 L114.71534,17.4696534 L117.103606,17.5782903 L119.547754,17.7054731 L121.211445,17.8005282 L122.90479,17.903771 L125.50463,18.0739389 L128.182037,18.2624053 L130.943518,18.4690959 L132.834426,18.6169775 L135.750487,18.8538768 L138.767971,19.1088023 L142.960296,19.4766155 L145.129,19.671 L148.189469,19.3317686 L153.167266,18.7876356 L158.056928,18.2642808 L161.269133,17.9268896 L164.44426,17.5986861 L167.583144,17.2796515 L170.686624,16.9697668 L175.277291,16.5220548 L178.29592,16.2349627 L181.282074,15.9569546 L185.702245,15.5569339 L188.610872,15.3015536 L192.918675,14.9353861 L195.755006,14.7025157 L198.563884,14.4786163 L201.346145,14.263669 L204.102626,14.0576551 L206.834164,13.8605557 L209.541596,13.672352 L210.855322,13.5836659 L213.244,13.428 L216.013257,12.9897584 L218.704148,12.5704441 L222.686309,11.9638993 L225.304919,11.5746455 L227.894559,11.1976058 L230.455199,10.8328887 L232.986805,10.4806029 L235.489347,10.1408569 L237.962791,9.81375923 C238.372605,9.76030302 238.781205,9.70737834 239.188592,9.65498746 L242.822259,9.19794319 L245.208219,8.90944193 L247.564953,8.63402324 L249.892429,8.37179569 L252.190616,8.12286784 L254.45948,7.88734823 C254.835179,7.84921835 255.209655,7.81165167 255.582907,7.77465045 L257.807728,7.55944676 C258.544437,7.48998611 259.276245,7.4228054 260.003147,7.35792272 L262.169133,7.17018688 C262.527675,7.14005262 262.884991,7.11049739 263.241077,7.08152346 L265.362851,6.91467346 L267.45511,6.76188305 C267.801358,6.73759565 268.146376,6.71389859 268.490161,6.69079412 L270.538088,6.55929665 C270.876944,6.53857164 271.214567,6.51844375 271.550956,6.49891525 L273.554479,6.38895496 L275.528359,6.29348849 L277.472564,6.2126244 C277.794123,6.20036995 278.114445,6.18872845 278.433528,6.17770217 L280.333161,6.11894519 C280.647288,6.11038882 280.960174,6.1024522 281.271821,6.09513758 L283.126809,6.05873196 C295.394084,5.86602924 305.674471,6.67576683 313.925176,8.63268733 C312.571948,7.83197274 311.029962,7.15074816 309.222699,6.55399335 L308.532391,6.33410141 C308.298044,6.26207834 308.059402,6.19130671 307.816316,6.12171812 L307.073578,5.91643308 L306.303281,5.7178359 C306.172551,5.68527089 306.040636,5.65296745 305.907516,5.62091701 L305.094197,5.43158213 L304.251077,5.24790913 L303.377257,5.0694876 L302.471843,4.89590716 L301.533936,4.72675742 L300.562641,4.56162797 L299.557061,4.40010843 L298.516298,4.2417884 L297.439457,4.08625749 L296.32564,3.93310531 L295.173951,3.78192145 L293.373445,3.55793855 L293.034298,3.5206668 L292.445415,3.46873973 L291.761386,3.42157894 L291.253091,3.39278057 L290.413109,3.35353758 L289.150228,3.30857722 L286.955368,3.25685956 L285.29585,3.23282258 L283.005557,3.21447422 L281.518335,3.20968326 L278.313459,3.21375515 L274.998665,3.23367425 L271.451544,3.26860198 L267.684628,3.31795301 L261.231661,3.42545408 L254.299417,3.56598273 L245.991658,3.7605705 L237.215345,3.99051064 L225.95902,4.31457868 L221.7454,4.44303322 C213.513865,4.69680286 205.294027,4.53596105 197.094102,3.96002913 L195.337481,3.83027689 Z M41.7188274,31.3057922 L40.819,31.759 L42.4005958,31.622308 L44.9395842,31.3896409 L48.7365871,31.0196057 L52.8451086,30.5953155 L56.6386841,30.1863025 L62.8455643,29.4902182 L70.5422527,28.5940328 L122.739891,22.2608132 L129.991,21.404 L128.182277,21.2705597 L126.001008,21.1153125 L123.8725,20.9721675 L121.793247,20.8411627 L119.759742,20.7223357 L117.768479,20.6157244 L115.815951,20.5213666 C115.493563,20.5066636 115.172643,20.4924726 114.853117,20.4787946 L112.952119,20.402888 L111.081091,20.3393293 L109.236526,20.2881565 C108.320275,20.2656729 107.412634,20.2478481 106.511629,20.2347034 L104.717884,20.2146605 C102.634141,20.198572 100.579374,20.2080413 98.5285255,20.2433386 L96.7710314,20.279925 C96.4780809,20.287079 96.1850643,20.2947617 95.8919085,20.3029739 L94.1307198,20.3586068 L92.3626853,20.4269847 C92.0672476,20.4394452 91.7713785,20.4524383 91.4750051,20.4659648 L89.6901275,20.553531 C70.6288951,21.5531225 54.546995,24.9519698 41.7188274,31.3057922 Z M244.415,12.029 L246.298024,11.9913494 L248.601807,11.9537586 C248.983275,11.9483577 249.363495,11.9433896 249.742466,11.9388556 L252.001284,11.9168675 C252.375252,11.9140737 252.747967,11.9117161 253.11943,11.9097958 L255.33316,11.9035304 L257.516761,11.9078133 C258.239601,11.9110049 258.95741,11.9159635 259.670179,11.9226979 L261.793357,11.9482374 L263.886242,11.9844851 C264.578814,11.9983583 265.266329,12.014025 265.948776,12.0314943 L267.980906,12.0893183 C268.317057,12.0998598 268.651939,12.1108542 268.985551,12.1223025 L270.971969,12.1964486 C271.629021,12.2229857 272.280982,12.2513475 272.927844,12.2815428 L274.85312,12.3776382 C275.808099,12.4284451 276.751583,12.4833976 277.68354,12.5425254 L279.532077,12.6663572 C280.143127,12.7094962 280.749045,12.7544998 281.349822,12.8013769 L283.136719,12.9476377 L284.892713,13.1051928 C285.1828,13.1323962 285.471598,13.1600723 285.759104,13.1882224 L287.46864,13.3628191 L289.147134,13.5488433 L290.794532,13.7463485 C305.481008,15.5757189 316.382509,18.8064931 323.31751,23.6134835 L323.714,23.895 L323.628537,23.5483415 C322.573569,19.4003472 321.176768,16.1820187 319.388532,13.6883368 L319.15306,13.3671666 L319.08,13.275 L318.431519,13.0416867 C314.974796,11.8531195 311.01289,10.9412236 306.554984,10.289898 L305.380806,10.1258873 L304.184162,9.97363474 C303.982851,9.94923564 303.780606,9.92532382 303.577426,9.90189795 L302.34715,9.76716361 C302.140238,9.74567626 301.932394,9.72467223 301.723618,9.70415018 L300.459791,9.58679112 L299.173643,9.48093618 L297.865208,9.38652184 C297.425353,9.3569501 296.98179,9.32927454 296.534525,9.30348458 L295.181628,9.23176088 L293.806554,9.17128722 C293.575529,9.16214225 293.343582,9.15346338 293.110713,9.1452493 L291.702442,9.1015316 C290.992781,9.08245086 290.274839,9.06752933 289.548634,9.05673129 L288.085215,9.0406226 C287.839478,9.03885062 287.592825,9.03753415 287.345255,9.03667189 L285.848856,9.03693804 L284.330515,9.04804135 C283.565866,9.05629172 282.793002,9.06858219 282.011943,9.08487706 L280.438908,9.12279538 L278.844057,9.17132855 L277.227428,9.23041305 L275.589057,9.29998534 L273.92898,9.37998193 L272.247233,9.47033928 L270.543852,9.57099387 L268.818874,9.68188219 L267.072335,9.80294072 L265.304271,9.93410594 L263.514718,10.0753143 L261.703713,10.2265023 L259.871292,10.3876065 L258.01749,10.5585633 L256.142345,10.7393091 L254.245892,10.9297805 L252.328168,11.129914 L250.389208,11.339646 L248.42905,11.558913 L246.447729,11.7876515 L244.415,12.029 Z M178.669,19.213 L175.768042,19.488733 L171.511787,19.9028637 L167.188405,20.3347524 L162.795638,20.7844497 L161.241,20.946 L161.774515,20.9710157 L162.658968,21.0044227 L163.478553,21.0258494 C163.61011,21.0284364 163.73924,21.0305349 163.866078,21.0321502 L164.600711,21.0360871 L165.286944,21.0286843 L165.931364,21.0101982 L166.540559,20.980885 C166.738485,20.969338 166.931638,20.9560291 167.121116,20.9410011 L167.679464,20.8905389 L168.079442,20.8444537 L169.175963,20.6980073 L171.786178,20.3102125 L177.168702,19.4570749 L178.669,19.213 Z" id="Stroke-6" fill="#1A1919" fill-rule="nonzero"></path>
                <polyline id="Fill-8" fill="#A9262B" points="65.8581786 234.029746 65.8581786 232.592746 59.5011786 232.592746 59.5011786 245.342746 61.2011786 245.342746 61.2011786 239.562746 65.6181786 239.562746 65.6181786 238.166746 61.2011786 238.166746 61.2011786 234.029746 65.8581786 234.029746"></polyline>
                <path d="M79.2751786,239.034746 C79.2731786,239.853746 79.1611786,240.576746 78.9421786,241.193746 C78.7281786,241.809746 78.4311786,242.325746 78.0611786,242.744746 C77.6871786,243.153746 77.2651786,243.466746 76.7941786,243.673746 C76.3221786,243.880746 75.8341786,243.981746 75.3191786,243.981746 C74.6601786,243.977746 74.0831786,243.858746 73.5931786,243.612746 C73.1041786,243.365746 72.7001786,243.017746 72.3751786,242.563746 C72.0551786,242.109746 71.8161786,241.572746 71.6551786,240.950746 C71.4981786,240.320746 71.4191786,239.628746 71.4191786,238.866746 C71.4211786,238.060746 71.5291786,237.355746 71.7401786,236.738746 C71.9471786,236.126746 72.2371786,235.611746 72.6001786,235.197746 C72.9651786,234.778746 73.3841786,234.464746 73.8531786,234.253746 C74.3201786,234.042746 74.8161786,233.932746 75.3371786,233.932746 C76.1721786,233.936746 76.8801786,234.134746 77.4661786,234.531746 C78.0551786,234.927746 78.5021786,235.501746 78.8111786,236.262746 C79.1181786,237.016746 79.2731786,237.941746 79.2751786,239.034746 M81.0881786,238.827746 C81.0861786,237.778746 80.9521786,236.853746 80.6901786,236.051746 C80.4301786,235.253746 80.0561786,234.584746 79.5681786,234.042746 C79.0771786,233.500746 78.4931786,233.094746 77.8121786,232.817746 C77.1321786,232.540746 76.3661786,232.403746 75.5221786,232.403746 C74.8671786,232.403746 74.2481786,232.500746 73.6591786,232.694746 C73.0651786,232.887746 72.5271786,233.169746 72.0351786,233.540746 C71.5421786,233.914746 71.1131786,234.373746 70.7521786,234.915746 C70.3881786,235.452746 70.1081786,236.077746 69.9081786,236.778746 C69.7121786,237.483746 69.6101786,238.258746 69.6051786,239.108746 C69.6051786,240.078746 69.7201786,240.959746 69.9481786,241.748746 C70.1761786,242.536746 70.5211786,243.207746 70.9791786,243.770746 C71.4421786,244.334746 72.0211786,244.770746 72.7181786,245.074746 C73.4161786,245.374746 74.2341786,245.528746 75.1711786,245.532746 C75.8251786,245.532746 76.4471786,245.435746 77.0371786,245.242746 C77.6271786,245.047746 78.1671786,244.765746 78.6601786,244.396746 C79.1521786,244.026746 79.5811786,243.563746 79.9411786,243.021746 C80.3041786,242.479746 80.5841786,241.858746 80.7851786,241.157746 C80.9841786,240.453746 81.0861786,239.676746 81.0881786,238.827746" id="Fill-9" fill="#A9262B"></path>
                <path d="M95.3171786,240.470746 L95.3171786,232.592746 L93.6531786,232.592746 L93.6531786,240.602746 C93.6531786,241.457746 93.5411786,242.135746 93.3081786,242.646746 C93.0801786,243.167746 92.7251786,243.532746 92.2541786,243.761746 C91.7801786,243.986746 91.1821786,244.100746 90.4541786,244.096746 C89.8301786,244.096746 89.3151786,244.012746 88.9111786,243.849746 C88.5071786,243.681746 88.1941786,243.458746 87.9681786,243.167746 C87.7421786,242.879746 87.5871786,242.541746 87.4971786,242.162746 C87.4081786,241.774746 87.3631786,241.365746 87.3681786,240.923746 L87.3681786,232.592746 L85.6681786,232.592746 L85.6681786,241.056746 C85.6631786,241.509746 85.7011786,241.955746 85.7771786,242.391746 C85.8561786,242.823746 85.9921786,243.228746 86.1901786,243.612746 C86.3841786,243.986746 86.6601786,244.321746 87.0141786,244.607746 C87.3631786,244.893746 87.8151786,245.123746 88.3581786,245.281746 C88.9041786,245.444746 89.5671786,245.528746 90.3431786,245.532746 C91.9741786,245.528746 93.2111786,245.100746 94.0511786,244.254746 C94.8931786,243.405746 95.3151786,242.144746 95.3171786,240.470746" id="Fill-10" fill="#A9262B"></path>
                <path d="M110.957179,245.342746 L110.957179,232.592746 L109.313179,232.592746 L109.313179,236.218746 C109.313179,236.646746 109.315179,237.104746 109.317179,237.588746 C109.324179,238.078746 109.331179,238.576746 109.338179,239.082746 C109.346179,239.589746 109.356179,240.082746 109.365179,240.567746 C109.374179,241.056746 109.384179,241.505746 109.400179,241.928746 C109.415179,242.351746 109.425179,242.721746 109.441179,243.039746 C109.209179,242.581746 108.966179,242.118746 108.709179,241.646746 C108.453179,241.175746 108.185179,240.708746 107.907179,240.241746 L103.265179,232.592746 L101.029179,232.592746 L101.029179,245.342746 L102.692179,245.342746 L102.692179,241.246746 C102.692179,240.836746 102.690179,240.400746 102.687179,239.928746 C102.683179,239.461746 102.677179,238.981746 102.667179,238.496746 C102.663179,238.007746 102.654179,237.536746 102.640179,237.078746 C102.631179,236.615746 102.619179,236.192746 102.606179,235.800746 C102.590179,235.413746 102.579179,235.077746 102.563179,234.804746 C102.763179,235.227746 102.983179,235.659746 103.213179,236.095746 C103.446179,236.536746 103.702179,236.985746 103.986179,237.448746 L108.737179,245.342746 L110.957179,245.342746" id="Fill-11" fill="#A9262B"></path>
                <path d="M124.970179,238.941746 C124.967179,239.800746 124.846179,240.549746 124.602179,241.179746 C124.363179,241.809746 124.020179,242.329746 123.581179,242.739746 C123.136179,243.149746 122.613179,243.453746 122.006179,243.651746 C121.399179,243.849746 120.729179,243.946746 119.996179,243.946746 C119.827179,243.946746 119.644179,243.942746 119.451179,243.932746 C119.257179,243.924746 119.062179,243.911746 118.870179,243.893746 C118.680179,243.880746 118.507179,243.858746 118.351179,243.832746 L118.351179,234.011746 C118.507179,234.003746 118.691179,233.994746 118.895179,233.985746 C119.102179,233.980746 119.322179,233.971746 119.549179,233.962746 C119.778179,233.959746 120.001179,233.954746 120.219179,233.954746 C121.832179,233.959746 123.028179,234.381746 123.808179,235.227746 C124.587179,236.073746 124.976179,237.306746 124.970179,238.941746 M126.763179,238.827746 C126.757179,237.369746 126.505179,236.174746 125.997179,235.245746 C125.491179,234.315746 124.762179,233.636746 123.816179,233.196746 C122.865179,232.752746 121.722179,232.531746 120.384179,232.535692 C119.926179,232.535692 119.472179,232.544746 119.022179,232.553746 C118.573179,232.562746 118.144179,232.571746 117.740179,232.584746 C117.337179,232.597746 116.973179,232.606746 116.651179,232.610746 L116.651179,245.342746 C117.109179,245.347746 117.593179,245.356746 118.108179,245.378746 C118.618179,245.400746 119.186179,245.418746 119.811179,245.418746 C120.838179,245.418746 121.773179,245.281746 122.622179,245.003746 C123.467179,244.726746 124.204179,244.312746 124.819179,243.761746 C125.439179,243.207746 125.915179,242.518746 126.251179,241.695746 C126.588179,240.876746 126.761179,239.919746 126.763179,238.827746" id="Fill-12" fill="#A9262B"></path>
                <path d="M137.089179,240.981746 L132.689179,240.981746 L134.297179,236.448746 C134.420179,236.126746 134.525179,235.800746 134.618179,235.478746 C134.715179,235.152746 134.799179,234.831746 134.870179,234.522746 L134.908179,234.522746 C134.983179,234.848746 135.061179,235.169746 135.152179,235.478746 C135.240179,235.792746 135.341179,236.108746 135.464179,236.425746 L137.089179,240.981746 Z M140.492179,245.342746 L135.905179,232.592746 L134.019179,232.592746 L129.471179,245.342746 L131.211179,245.342746 L132.244179,242.356746 L137.551179,242.356746 L138.587179,245.342746 L140.492179,245.342746 L140.492179,245.342746 Z" id="Fill-13" fill="#A9262B"></path>
                <polyline id="Fill-14" fill="#A9262B" points="150.717179 234.046746 150.717179 232.592746 141.823179 232.592746 141.823179 234.046746 145.412179 234.046746 145.412179 245.342746 147.113179 245.342746 147.113179 234.046746 150.717179 234.046746"></polyline>
                <polygon id="Fill-15" fill="#A9262B" points="154.663179 245.342746 156.364179 245.342746 156.364179 232.592746 154.663179 232.592746"></polygon>
                <path d="M170.664179,239.034746 C170.662179,239.853746 170.550179,240.576746 170.332179,241.193746 C170.115179,241.809746 169.819179,242.325746 169.450179,242.744746 C169.078179,243.153746 168.653179,243.466746 168.181179,243.673746 C167.713179,243.880746 167.221179,243.981746 166.707179,243.981746 C166.049179,243.977746 165.470179,243.858746 164.980179,243.612746 C164.492179,243.365746 164.088179,243.017746 163.765179,242.563746 C163.442179,242.109746 163.204179,241.572746 163.044179,240.950746 C162.884179,240.320746 162.807179,239.628746 162.807179,238.866746 C162.808179,238.060746 162.917179,237.355746 163.128179,236.738746 C163.337179,236.126746 163.625179,235.611746 163.989179,235.197746 C164.352179,234.778746 164.771179,234.464746 165.240179,234.253746 C165.710179,234.042746 166.204179,233.932746 166.724179,233.932746 C167.559179,233.936746 168.269179,234.134746 168.853179,234.531746 C169.443179,234.927746 169.889179,235.501746 170.198179,236.262746 C170.506179,237.016746 170.662179,237.941746 170.664179,239.034746 M172.474179,238.827746 C172.472179,237.778746 172.340179,236.853746 172.078179,236.051746 C171.817179,235.253746 171.443179,234.584746 170.957179,234.042746 C170.467179,233.500746 169.881179,233.094746 169.200179,232.817746 C168.517179,232.540746 167.754179,232.403746 166.909179,232.403746 C166.257179,232.403746 165.635179,232.500746 165.046179,232.694746 C164.453179,232.887746 163.914179,233.169746 163.423179,233.540746 C162.927179,233.914746 162.500179,234.373746 162.141179,234.915746 C161.776179,235.452746 161.496179,236.077746 161.296179,236.778746 C161.098179,237.483746 160.997179,238.258746 160.993179,239.108746 C160.993179,240.078746 161.108179,240.959746 161.335179,241.748746 C161.563179,242.536746 161.909179,243.207746 162.369179,243.770746 C162.831179,244.334746 163.410179,244.770746 164.105179,245.074746 C164.802179,245.374746 165.622179,245.528746 166.560179,245.532746 C167.211179,245.532746 167.835179,245.435746 168.423179,245.242746 C169.014179,245.047746 169.552179,244.765746 170.048179,244.396746 C170.539179,244.026746 170.966179,243.563746 171.329179,243.021746 C171.692179,242.479746 171.974179,241.858746 172.173179,241.157746 C172.371179,240.453746 172.472179,239.676746 172.474179,238.827746" id="Fill-16" fill="#A9262B"></path>
                <path d="M186.955179,245.342746 L186.955179,232.592746 L185.311179,232.592746 L185.311179,236.218746 C185.311179,236.646746 185.311179,237.104746 185.316179,237.588746 C185.320179,238.078746 185.329179,238.576746 185.334179,239.082746 C185.342179,239.589746 185.353179,240.082746 185.362179,240.567746 C185.371179,241.056746 185.382179,241.505746 185.399179,241.928746 C185.413179,242.351746 185.422179,242.721746 185.439179,243.039746 C185.210179,242.581746 184.963179,242.118746 184.706179,241.646746 C184.448179,241.175746 184.184179,240.708746 183.906179,240.241746 L179.262179,232.592746 L177.027179,232.592746 L177.027179,245.342746 L178.690179,245.342746 L178.690179,241.246746 C178.690179,240.836746 178.687179,240.400746 178.683179,239.928746 C178.680179,239.461746 178.674179,238.981746 178.663179,238.496746 C178.659179,238.007746 178.650179,237.536746 178.636179,237.078746 C178.628179,236.615746 178.617179,236.192746 178.603179,235.800746 C178.589179,235.413746 178.576179,235.077746 178.561179,234.804746 C178.760179,235.227746 178.980179,235.659746 179.210179,236.095746 C179.443179,236.536746 179.698179,236.985746 179.985179,237.448746 L184.738179,245.342746 L186.955179,245.342746" id="Fill-17" fill="#A9262B"></path>
                <polyline id="Fill-18" fill="#A9262B" points="205.095179 234.029746 205.095179 232.592746 198.736179 232.592746 198.736179 245.342746 200.434179 245.342746 200.434179 239.562746 204.853179 239.562746 204.853179 238.166746 200.434179 238.166746 200.434179 234.029746 205.095179 234.029746"></polyline>
                <path d="M218.489179,239.034746 C218.487179,239.853746 218.375179,240.576746 218.157179,241.193746 C217.940179,241.809746 217.645179,242.325746 217.275179,242.744746 C216.903179,243.153746 216.478179,243.466746 216.007179,243.673746 C215.536179,243.880746 215.047179,243.981746 214.533179,243.981746 C213.874179,243.977746 213.297179,243.858746 212.808179,243.612746 C212.319179,243.365746 211.913179,243.017746 211.591179,242.563746 C211.270179,242.109746 211.028179,241.572746 210.870179,240.950746 C210.711179,240.320746 210.632179,239.628746 210.632179,238.866746 C210.635179,238.060746 210.741179,237.355746 210.953179,236.738746 C211.162179,236.126746 211.451179,235.611746 211.815179,235.197746 C212.179179,234.778746 212.596179,234.464746 213.067179,234.253746 C213.535179,234.042746 214.028179,233.932746 214.550179,233.932746 C215.387179,233.936746 216.094179,234.134746 216.680179,234.531746 C217.269179,234.927746 217.715179,235.501746 218.024179,236.262746 C218.333179,237.016746 218.487179,237.941746 218.489179,239.034746 M220.302179,238.827746 C220.298179,237.778746 220.165179,236.853746 219.903179,236.051746 C219.645179,235.253746 219.271179,234.584746 218.782179,234.042746 C218.294179,233.500746 217.708179,233.094746 217.024179,232.817746 C216.346179,232.540746 215.579179,232.403746 214.735179,232.403746 C214.084179,232.403746 213.460179,232.500746 212.874179,232.694746 C212.279179,232.887746 211.741179,233.169746 211.249179,233.540746 C210.756179,233.914746 210.325179,234.373746 209.965179,234.915746 C209.600179,235.452746 209.323179,236.077746 209.120179,236.778746 C208.925179,237.483746 208.823179,238.258746 208.820179,239.108746 C208.820179,240.078746 208.935179,240.959746 209.162179,241.748746 C209.389179,242.536746 209.735179,243.207746 210.195179,243.770746 C210.658179,244.334746 211.235179,244.770746 211.930179,245.074746 C212.628179,245.374746 213.447179,245.528746 214.384179,245.532746 C215.037179,245.532746 215.661179,245.435746 216.249179,245.242746 C216.840179,245.047746 217.382179,244.765746 217.875179,244.396746 C218.368179,244.026746 218.796179,243.563746 219.154179,243.021746 C219.518179,242.479746 219.800179,241.858746 220.000179,241.157746 C220.197179,240.453746 220.298179,239.676746 220.302179,238.827746" id="Fill-19" fill="#A9262B"></path>
                <path d="M230.449179,236.068746 C230.449179,236.522746 230.334179,236.923746 230.112179,237.262746 C229.893179,237.611746 229.572179,237.871746 229.151179,238.064746 C228.730179,238.253746 228.219179,238.351746 227.621179,238.355746 C227.369179,238.355746 227.153179,238.351746 226.972179,238.342746 C226.796179,238.334746 226.660179,238.324746 226.567179,238.315746 L226.567179,233.971746 C226.730179,233.962746 226.906179,233.954746 227.095179,233.945746 C227.281179,233.936746 227.479179,233.936746 227.690179,233.936746 C228.295179,233.932746 228.805179,234.003746 229.210179,234.148746 C229.623179,234.289746 229.928179,234.522746 230.135179,234.835746 C230.342179,235.152746 230.449179,235.562746 230.449179,236.068746 M233.035179,245.342746 L229.506179,240.792746 C229.339179,240.581746 229.160179,240.360746 228.975179,240.122746 C228.788179,239.888746 228.603179,239.659746 228.414179,239.430746 C228.965179,239.395746 229.468179,239.285746 229.928179,239.113746 C230.391179,238.937746 230.793179,238.694746 231.137179,238.395746 C231.479179,238.090746 231.744179,237.725746 231.933179,237.294746 C232.123179,236.871746 232.219179,236.386746 232.224179,235.844746 C232.219179,235.231746 232.114179,234.716746 231.907179,234.293746 C231.700179,233.870746 231.407179,233.527746 231.028179,233.266746 C230.651179,233.006746 230.204179,232.813746 229.686179,232.694746 C229.173179,232.575746 228.605179,232.513746 227.990179,232.517746 C227.536179,232.517746 227.127179,232.522746 226.760179,232.527746 C226.391179,232.531746 226.056179,232.535746 225.748179,232.548746 C225.439179,232.557746 225.144179,232.575746 224.865179,232.592746 L224.865179,245.342746 L226.567179,245.342746 L226.567179,239.620746 L226.637179,239.620746 L230.872179,245.342746 L233.035179,245.342746" id="Fill-20" fill="#A9262B"></path>
                <polyline id="Fill-21" fill="#A9262B" points="249.790179 245.342746 249.790179 243.849746 245.316179 243.849746 245.316179 232.592746 243.616179 232.592746 243.616179 245.342746 249.790179 245.342746"></polyline>
                <polygon id="Fill-22" fill="#A9262B" points="253.812179 245.342746 255.515179 245.342746 255.515179 232.592746 253.812179 232.592746"></polygon>
                <polyline id="Fill-23" fill="#A9262B" points="267.497179 234.029746 267.497179 232.592746 261.139179 232.592746 261.139179 245.342746 262.840179 245.342746 262.840179 239.562746 267.255179 239.562746 267.255179 238.166746 262.840179 238.166746 262.840179 234.029746 267.497179 234.029746"></polyline>
                <polyline id="Fill-24" fill="#A9262B" points="278.501179 245.342746 278.501179 243.889746 273.786179 243.889746 273.786179 239.469746 278.280179 239.469746 278.280179 238.069746 273.786179 238.069746 273.786179 234.029746 278.501179 234.029746 278.501179 232.592746 272.086179 232.592746 272.086179 245.342746 278.501179 245.342746"></polyline>
            </g>
        </g>
    </g>
</svg>